# xmcd CD database file
#
# Track frame offsets:
#	150
#	19790
#	36307
#	55735
#	70715
#	87747
#	106870
#	127167
#	144575
#	161115
#	177787
#	196047
#	211930
#	226162
#
# Disc length: 3247 seconds
#
# Revision: 3
# Processed by: cddbd v1.5.2PL0 Copyright (c) Steve Scherf et al.
# Submitted via: CDex 1.51
#
DISCID=bf0cad0e
DTITLE=Roy Rogers - Rhythm and Groove
DYEAR=1996
DGENRE=Blues
TTITLE0=Vida's Place
TTITLE1=My Heart's Desire
TTITLE2=Call On Me
TTITLE3=Built For Comfort
TTITLE4=Feel My Care
TTITLE5=For The Love Of A Woman
TTITLE6=Shakin' Hands With The Devil
TTITLE7=Your Mind Is On Vacation
TTITLE8=Proud Man
TTITLE9=Blues For Brazil
TTITLE10=Love Me Or Leave Me
TTITLE11=Ever Since I Lost You
TTITLE12=Wrong Number
TTITLE13=Remembering You
EXTD=YEAR: 1996
EXTT0=
EXTT1=
EXTT2=
EXTT3=
EXTT4=
EXTT5=
EXTT6=
EXTT7=
EXTT8=
EXTT9=
EXTT10=
EXTT11=
EXTT12=
EXTT13=
PLAYORDER=
